<?xml version="1.0" encoding="UTF-8" standalone="no"?>
<svg
   xmlns:dc="http://purl.org/dc/elements/1.1/"
   xmlns:cc="http://creativecommons.org/ns#"
   xmlns:rdf="http://www.w3.org/1999/02/22-rdf-syntax-ns#"
   xmlns:svg="http://www.w3.org/2000/svg"
   xmlns="http://www.w3.org/2000/svg"
   id="svg940"
   version="1.1"
   viewBox="0 0 200 200"
   height="200mm"
   width="200mm">
  <defs
     id="defs934" />
  <metadata
     id="metadata937">
    <rdf:RDF>
      <cc:Work
         rdf:about="">
        <dc:format>image/svg+xml</dc:format>
        <dc:type
           rdf:resource="http://purl.org/dc/dcmitype/StillImage" />
        <dc:title></dc:title>
      </cc:Work>
    </rdf:RDF>
  </metadata>
  <g
     transform="translate(0,-97)"
     id="layer1">
    <g
       transform="matrix(1.2017055,0,0,-1.2017055,-368.1606,1049.7103)"
       id="g920">
      <rect
         style="fill:#414142;fill-opacity:1;stroke-width:0.27771255"
         id="rect895"
         width="158.80455"
         height="158.80455"
         x="310.6286"
         y="-788.17822"
         transform="scale(1,-1)"
         ry="17.111124" />
      <g
         id="g32"
         transform="matrix(1.3279516,0,0,1.3279516,446.9476,746.74742)">
        <path
           d="m 0,0 v -25.129 c 0,-7.859 -6.307,-14.287 -14.287,-14.287 h -26.108 v 9.576 h -0.056 c 2.158,0.407 3.776,2.279 3.776,4.546 v 8.574 h 1.354 l 2.796,4.777 c 3.214,0.496 5.998,-0.352 7.363,-0.913 0.562,-1.541 2.036,-2.642 3.776,-2.642 h 8.156 c 2.19,0 3.984,1.772 3.984,3.996 v 8.156 c 0,2.201 -1.794,3.984 -3.984,3.984 h -8.156 c -1.74,0 -3.203,-1.111 -3.754,-2.641 -1.376,-0.551 -4.16,-1.409 -7.385,-0.914 l -2.796,4.766 h -20.253 c 0,0 -23.588,-1.2 -23.588,-18.569 h 1.431 c 0,0 2.08,5.988 10.391,9.731 0.473,0.165 11.766,4.072 11.766,-3.247 v -6.484 h 1.365 v -8.574 c 0,-2.267 1.618,-4.139 3.764,-4.546 v -9.576 h -21.001 c -1.068,0 -2.851,0.231 -4.645,0.473 v -32.393 h -9.631 v 85.623 h 71.435 C -6.307,14.287 0,7.859 0,0"
           style="fill:#fbb03c;fill-opacity:1;fill-rule:nonzero;stroke:none"
           id="path34" />
      </g>
    </g>
  </g>
</svg>
