<?xml version="1.0" encoding="UTF-8" standalone="no"?>
<svg
   xmlns:dc="http://purl.org/dc/elements/1.1/"
   xmlns:cc="http://creativecommons.org/ns#"
   xmlns:rdf="http://www.w3.org/1999/02/22-rdf-syntax-ns#"
   xmlns:svg="http://www.w3.org/2000/svg"
   xmlns="http://www.w3.org/2000/svg"
   width="500mm"
   height="200mm"
   viewBox="0 0 500 200"
   version="1.1"
   id="svg116">
  <defs
     id="defs110">
    <clipPath
       clipPathUnits="userSpaceOnUse"
       id="clipPath22">
      <path
         d="M 0,841.89 H 595.28 V 0 H 0 Z"
         id="path20" />
    </clipPath>
  </defs>
  <metadata
     id="metadata113">
    <rdf:RDF>
      <cc:Work
         rdf:about="">
        <dc:format>image/svg+xml</dc:format>
        <dc:type
           rdf:resource="http://purl.org/dc/dcmitype/StillImage" />
        <dc:title></dc:title>
      </cc:Work>
    </rdf:RDF>
  </metadata>
  <g
     id="layer1"
     transform="translate(0,-97)">
    <g
       id="g16"
       transform="matrix(1.0874591,0,0,-1.0874591,-86.637973,906.35781)">
      <g
         id="g18"
         clip-path="url(#clipPath22)">
        <g
           id="g24"
           transform="translate(538.6565,727.771)">
          <path
             d="m 0,0 v -90.861 c -0.006,-6.167 -4.76,-11.193 -10.665,-11.347 -0.094,-0.006 -0.189,-0.006 -0.283,-0.006 H -206.561 V 11.353 H -10.948 C -4.913,11.353 0,6.268 0,0"
             style="fill:#fbb03f;fill-opacity:1;fill-rule:nonzero;stroke:none"
             id="path26" />
        </g>
        <g
           id="g28"
           transform="translate(332.0954,739.1243)">
          <path
             d="m 0,0 v -113.562 h -239.944 c -5.39,0 -9.879,3.898 -10.927,9.066 v 0.006 c -0.071,0.368 -0.13,0.743 -0.165,1.123 -0.042,0.38 -0.059,0.766 -0.059,1.158 v 90.862 0.012 c 0,0.38 0.017,0.76 0.059,1.128 0.053,0.583 0.154,1.147 0.29,1.694 0.094,0.362 0.201,0.718 0.325,1.063 1.568,4.349 5.667,7.45 10.477,7.45 z"
             style="fill:#414142;fill-opacity:1;fill-rule:nonzero;stroke:none"
             id="path30" />
        </g>
        <g
           id="g32"
           transform="translate(186.7874,710.8729)">
          <path
             d="m 0,0 v -25.129 c 0,-7.859 -6.307,-14.287 -14.287,-14.287 h -26.108 v 9.576 h -0.056 c 2.158,0.407 3.776,2.279 3.776,4.546 v 8.574 h 1.354 l 2.796,4.777 c 3.214,0.496 5.998,-0.352 7.363,-0.913 0.562,-1.541 2.036,-2.642 3.776,-2.642 h 8.156 c 2.19,0 3.984,1.772 3.984,3.996 v 8.156 c 0,2.201 -1.794,3.984 -3.984,3.984 h -8.156 c -1.74,0 -3.203,-1.111 -3.754,-2.641 -1.376,-0.551 -4.16,-1.409 -7.385,-0.914 l -2.796,4.766 h -20.253 c 0,0 -23.588,-1.2 -23.588,-18.569 h 1.431 c 0,0 2.08,5.988 10.391,9.731 0.473,0.165 11.766,4.072 11.766,-3.247 v -6.484 h 1.365 v -8.574 c 0,-2.267 1.618,-4.139 3.764,-4.546 v -9.576 h -21.001 c -1.068,0 -2.851,0.231 -4.645,0.473 v -32.393 h -9.631 v 85.623 h 71.435 C -6.307,14.287 0,7.859 0,0"
             style="fill:#fbb03c;fill-opacity:1;fill-rule:nonzero;stroke:none"
             id="path34" />
        </g>
        <g
           id="g36"
           transform="translate(246.0184,708.6077)">
          <path
             d="m 0,0 v -9.764 h -38.82 c -2.5,0 -4.644,-2.144 -4.644,-4.644 v -54.657 h -9.764 v 54.657 C -53.228,-6.43 -46.798,0 -38.82,0 Z"
             style="fill:#fbb03f;fill-opacity:1;fill-rule:nonzero;stroke:none"
             id="path38" />
        </g>
        <g
           id="g40"
           transform="translate(313.5396,653.956)">
          <path
             d="m 0,0 c 0,-2.51 -2.025,-4.645 -4.645,-4.645 h -41.441 c -2.499,0 -4.645,2.135 -4.645,4.645 v 40.241 c 0,2.499 2.146,4.645 4.645,4.645 H -4.645 C -2.025,44.886 0,42.74 0,40.241 Z m -4.645,54.649 h -41.441 c -7.98,0 -14.408,-6.428 -14.408,-14.408 V 0 c 0,-7.98 6.428,-14.419 14.408,-14.419 h 41.441 c 8.09,0 14.529,6.439 14.529,14.419 v 40.241 c 0,7.98 -6.439,14.408 -14.529,14.408"
             style="fill:#fbb03f;fill-opacity:1;fill-rule:nonzero;stroke:none"
             id="path42" />
        </g>
        <g
           id="g44"
           transform="translate(420.0426,725.2169)">
          <path
             d="m 0,0 v -9.646 h -68.589 v -28.341 h 55.132 v -9.764 h -55.132 v -37.986 h -9.646 V 0 Z"
             style="fill:#414142;fill-opacity:1;fill-rule:nonzero;stroke:none"
             id="path46" />
        </g>
        <g
           id="g48"
           transform="translate(518.4718,708.6094)">
          <path
             d="M 0,0 -28.817,-33.937 0.119,-69.065 h -12.86 l -22.506,27.626 c -6.906,-8.454 -15.361,-19.053 -22.387,-27.626 h -12.86 L -41.677,-33.937 -70.494,0 h 12.86 l 22.387,-26.197 c 6.669,7.859 15.6,18.219 22.506,26.197 z"
             style="fill:#414142;fill-opacity:1;fill-rule:nonzero;stroke:none"
             id="path50" />
        </g>
        <path
           d="m 438.274,715.453 h -9.764 v 9.764 h 9.764 z"
           style="fill:#414142;fill-opacity:1;fill-rule:nonzero;stroke:none"
           id="path52" />
        <path
           d="m 428.509,708.609 h 9.764 v -69.065 h -9.764 z"
           style="fill:#414142;fill-opacity:1;fill-rule:nonzero;stroke:none"
           id="path54" />
        <g
           id="g56"
           transform="translate(92.0161,625.5596)">
          <path
             d="M 0,0 H 0.333"
             style="fill:#414142;fill-opacity:1;fill-rule:nonzero;stroke:#414142;stroke-width:10;stroke-linecap:butt;stroke-linejoin:miter;stroke-miterlimit:10;stroke-dasharray:none;stroke-opacity:1"
             id="path58" />
        </g>
      </g>
    </g>
    <text
       style="font-variant:normal;font-weight:normal;font-stretch:normal;font-size:47.95574951px;font-family:'Century Gothic';-inkscape-font-specification:CenturyGothic;writing-mode:lr-tb;fill:#fbb03f;fill-opacity:1;fill-rule:nonzero;stroke:none;stroke-width:1.08745909"
       id="text74"
       x="1.4467028"
       y="279.78784">
      <tspan
         style="stroke-width:1.08745909"
         x="1.4467028 27.151016 56.404018 88.678261 98.269394 127.52244 158.69376 189.86496 204.29964 213.89078 243.1438"
         y="279.78784"
         id="tspan68">Engineering</tspan>
      <tspan
         style="stroke-width:1.08745909"
         x="275.41791"
         y="279.78784"
         id="tspan70" />
      <tspan
         style="stroke-width:1.08745909"
         x="288.70163 327.68967 359.10071 372.38446 385.66818 398.95193 421.10745 437.36447 470.21414"
         y="279.78784"
         id="tspan72">Co., Ltd.</tspan>
    </text>
  </g>
</svg>
