<?xml version="1.0" encoding="UTF-8" standalone="no"?>
<svg
   id="svg116"
   version="1.1"
   viewBox="0 0 500 140"
   height="140mm"
   width="500mm"
   sodipodi:docname="profix1.svg"
   inkscape:version="1.1 (ce6663b3b7, 2021-05-25)"
   xmlns:inkscape="http://www.inkscape.org/namespaces/inkscape"
   xmlns:sodipodi="http://sodipodi.sourceforge.net/DTD/sodipodi-0.dtd"
   xmlns="http://www.w3.org/2000/svg"
   xmlns:svg="http://www.w3.org/2000/svg"
   xmlns:rdf="http://www.w3.org/1999/02/22-rdf-syntax-ns#"
   xmlns:cc="http://creativecommons.org/ns#"
   xmlns:dc="http://purl.org/dc/elements/1.1/">
  <sodipodi:namedview
     id="namedview32"
     pagecolor="#ffffff"
     bordercolor="#666666"
     borderopacity="1.0"
     inkscape:pageshadow="2"
     inkscape:pageopacity="0.0"
     inkscape:pagecheckerboard="0"
     inkscape:document-units="mm"
     showgrid="false"
     inkscape:zoom="0.5826125"
     inkscape:cx="944.88189"
     inkscape:cy="377.60947"
     inkscape:window-width="1366"
     inkscape:window-height="731"
     inkscape:window-x="0"
     inkscape:window-y="0"
     inkscape:window-maximized="1"
     inkscape:current-layer="g16" />
  <defs
     id="defs110">
    <clipPath
       id="clipPath22"
       clipPathUnits="userSpaceOnUse">
      <path
         id="path20"
         d="M 0,841.89 H 595.28 V 0 H 0 Z" />
    </clipPath>
  </defs>
  <metadata
     id="metadata113">
    <rdf:RDF>
      <cc:Work
         rdf:about="">
        <dc:format>image/svg+xml</dc:format>
        <dc:type
           rdf:resource="http://purl.org/dc/dcmitype/StillImage" />
      </cc:Work>
    </rdf:RDF>
  </metadata>
  <g
     transform="translate(0,-97)"
     id="layer1">
    <g
       transform="matrix(1.0874591,0,0,-1.0874591,-86.637973,909.96249)"
       id="g16">
      <g
         clip-path="url(#clipPath22)"
         id="g18">
        <g
           transform="translate(538.6565,727.771)"
           id="g24">
          <path
             id="path26"
             style="fill:#fbb03f;fill-opacity:1;fill-rule:nonzero;stroke:none"
             d="m 0,0 v -90.861 c -0.006,-6.167 -4.76,-11.193 -10.665,-11.347 -0.094,-0.006 -0.189,-0.006 -0.283,-0.006 H -206.561 V 11.353 H -10.948 C -4.913,11.353 0,6.268 0,0" />
        </g>
        <g
           transform="translate(332.0954,739.1243)"
           id="g28">
          <path
             id="path30"
             style="fill:#414142;fill-opacity:1;fill-rule:nonzero;stroke:none"
             d="m 0,0 v -113.562 h -239.944 c -5.39,0 -9.879,3.898 -10.927,9.066 v 0.006 c -0.071,0.368 -0.13,0.743 -0.165,1.123 -0.042,0.38 -0.059,0.766 -0.059,1.158 v 90.862 0.012 c 0,0.38 0.017,0.76 0.059,1.128 0.053,0.583 0.154,1.147 0.29,1.694 0.094,0.362 0.201,0.718 0.325,1.063 1.568,4.349 5.667,7.45 10.477,7.45 z" />
        </g>
        <g
           transform="translate(186.7874,710.8729)"
           id="g32">
          <path
             id="path34"
             style="fill:#fbb03c;fill-opacity:1;fill-rule:nonzero;stroke:none"
             d="m 0,0 v -25.129 c 0,-7.859 -6.307,-14.287 -14.287,-14.287 h -26.108 v 9.576 h -0.056 c 2.158,0.407 3.776,2.279 3.776,4.546 v 8.574 h 1.354 l 2.796,4.777 c 3.214,0.496 5.998,-0.352 7.363,-0.913 0.562,-1.541 2.036,-2.642 3.776,-2.642 h 8.156 c 2.19,0 3.984,1.772 3.984,3.996 v 8.156 c 0,2.201 -1.794,3.984 -3.984,3.984 h -8.156 c -1.74,0 -3.203,-1.111 -3.754,-2.641 -1.376,-0.551 -4.16,-1.409 -7.385,-0.914 l -2.796,4.766 h -20.253 c 0,0 -23.588,-1.2 -23.588,-18.569 h 1.431 c 0,0 2.08,5.988 10.391,9.731 0.473,0.165 11.766,4.072 11.766,-3.247 v -6.484 h 1.365 v -8.574 c 0,-2.267 1.618,-4.139 3.764,-4.546 v -9.576 h -21.001 c -1.068,0 -2.851,0.231 -4.645,0.473 v -32.393 h -9.631 v 85.623 h 71.435 C -6.307,14.287 0,7.859 0,0" />
        </g>
        <g
           transform="translate(246.0184,708.6077)"
           id="g36">
          <path
             id="path38"
             style="fill:#fbb03f;fill-opacity:1;fill-rule:nonzero;stroke:none"
             d="m 0,0 v -9.764 h -38.82 c -2.5,0 -4.644,-2.144 -4.644,-4.644 v -54.657 h -9.764 v 54.657 C -53.228,-6.43 -46.798,0 -38.82,0 Z" />
        </g>
        <g
           transform="translate(313.5396,653.956)"
           id="g40">
          <path
             id="path42"
             style="fill:#fbb03f;fill-opacity:1;fill-rule:nonzero;stroke:none"
             d="m 0,0 c 0,-2.51 -2.025,-4.645 -4.645,-4.645 h -41.441 c -2.499,0 -4.645,2.135 -4.645,4.645 v 40.241 c 0,2.499 2.146,4.645 4.645,4.645 H -4.645 C -2.025,44.886 0,42.74 0,40.241 Z m -4.645,54.649 h -41.441 c -7.98,0 -14.408,-6.428 -14.408,-14.408 V 0 c 0,-7.98 6.428,-14.419 14.408,-14.419 h 41.441 c 8.09,0 14.529,6.439 14.529,14.419 v 40.241 c 0,7.98 -6.439,14.408 -14.529,14.408" />
        </g>
        <g
           transform="translate(420.0426,725.2169)"
           id="g44">
          <path
             id="path46"
             style="fill:#414142;fill-opacity:1;fill-rule:nonzero;stroke:none"
             d="m 0,0 v -9.646 h -68.589 v -28.341 h 55.132 v -9.764 h -55.132 v -37.986 h -9.646 V 0 Z" />
        </g>
        <g
           transform="translate(518.4718,708.6094)"
           id="g48">
          <path
             id="path50"
             style="fill:#414142;fill-opacity:1;fill-rule:nonzero;stroke:none"
             d="M 0,0 -28.817,-33.937 0.119,-69.065 h -12.86 l -22.506,27.626 c -6.906,-8.454 -15.361,-19.053 -22.387,-27.626 h -12.86 L -41.677,-33.937 -70.494,0 h 12.86 l 22.387,-26.197 c 6.669,7.859 15.6,18.219 22.506,26.197 z" />
        </g>
        <path
           id="path52"
           style="fill:#414142;fill-opacity:1;fill-rule:nonzero;stroke:none"
           d="m 438.274,715.453 h -9.764 v 9.764 h 9.764 z" />
        <path
           id="path54"
           style="fill:#414142;fill-opacity:1;fill-rule:nonzero;stroke:none"
           d="m 428.509,708.609 h 9.764 v -69.065 h -9.764 z" />
      </g>
    </g>
  </g>
</svg>
